<svg id="uuid-77b17a71-882e-42ca-9320-360b2a125978" xmlns="http://www.w3.org/2000/svg" width="45.89mm" height="24.35mm" xmlns:xlink="http://www.w3.org/1999/xlink" viewBox="0 0 130.09 69.02"><defs><linearGradient id="uuid-b7c98359-7714-4fd0-ad05-142af3846236" x1="33.15" y1="56.91" x2="103.56" y2="-13.5" gradientTransform="translate(-1.37 15.48) rotate(-1.23)" gradientUnits="userSpaceOnUse"><stop offset="0" stop-color="#1d212a"/><stop offset=".52" stop-color="#18304c"/><stop offset=".54" stop-color="#18314e"/><stop offset="1" stop-color="#1d212a"/></linearGradient><linearGradient id="uuid-a7dc435f-3697-4617-ae59-b2aae1ee858a" x1="5.67" y1="34.73" x2="127.52" y2="2.09" gradientTransform="translate(-1.37 15.48) rotate(-1.23)" gradientUnits="userSpaceOnUse"><stop offset="0" stop-color="#384456"/><stop offset=".23" stop-color="#2f3a4a"/><stop offset=".51" stop-color="#222a37"/><stop offset=".63" stop-color="#202733"/><stop offset="1" stop-color="#1f2531"/>
</linearGradient><linearGradient id="uuid-a7dc435f-3697-4617-ae59-b2aae1ee8582" x1="5.67" y1="34.73" x2="127.52" y2="2.09" gradientTransform="translate(-1.37 15.48) rotate(-1.23)" gradientUnits="userSpaceOnUse"><stop offset="0" stop-color="#495567"/><stop offset=".23" stop-color="#3f4b5b"/><stop offset=".51" stop-color="#333b48"/><stop offset=".63" stop-color="#313844"/><stop offset="1" stop-color="#2f3642"/></linearGradient></defs><g id="uuid-aa56c150-afb7-442a-9060-a9029f871445"><g id="uuid-0691aa11-d2d9-4304-be24-3a78d590ae05"><g id="uuid-5f54435b-202c-4c3c-a285-850422871075"><path id="uuid-c20c098b-29a8-421e-be2d-24c7b89d012e" d="M129.46,26.19s-.01-.01-.02-.02c.77,2.2.58,4.76-.89,6.9l-17.55,25.7c-3.15,4.62-8.68,6.73-13.87,5.28L4.31,38.25c-2.64-.73-4.11-3.14-4.07-5.71-.05.48-.11,1.16-.19,2.22-.09,1.12-.08,2.26.06,3.37.42,3.18,1.43,3.79,3.87,4.47l93.13,25.98c5.21,1.45,10.75-.67,13.92-5.32l17.6-25.87c.97-1.42,1.38-3.02,1.34-4.58-.04-1.35.17-5.47-.51-6.61Z" fill="url(#uuid-b7c98359-7714-4fd0-ad05-142af3846236)"/><path id="uuid-be92703e-a313-4d29-8c15-671aba953db2" d="M97.14,64.06L4.31,38.25c-4.09-1.14-5.4-6.29-2.55-9.87L19.18,6.51C23.14,1.53,29.45-.78,35.28.58l88.87,20.74c5.08,1.19,7.42,7.35,4.41,11.76l-17.55,25.7c-3.15,4.62-8.68,6.73-13.87,5.28Z" fill="url(#uuid-a7dc435f-3697-4617-ae59-b2aae1ee8582)" stroke="#3e4454" stroke-miterlimit="10" stroke-width=".39"/><path id="uuid-be92703e-a313-4d29-8c15-671aba953db1" d="M97.14,64.06L4.31,38.25c-4.09-1.14-5.4-6.29-2.55-9.87L19.18,6.51C23.14,1.53,29.45-.78,35.28.58l88.87,20.74c5.08,1.19,7.42,7.35,4.41,11.76l-17.55,25.7c-3.15,4.62-8.68,6.73-13.87,5.28Z" fill="url(#uuid-a7dc435f-3697-4617-ae59-b2aae1ee858a)" stroke="#3e4454" stroke-miterlimit="10" stroke-width=".39"/><g id="uuid-ac134b61-192c-4f2e-86ec-cfa3fdc84e17"><path id="uuid-a8aa094e-de74-4d98-a4eb-c82c76177d33" d="M29.73,16.17l-6.59,8.45,4.11,1.07c.33.09.51.24.54.48.03.23-.06.49-.28.78s-.49.5-.81.64c-.31.13-.64.16-.97.07l-4.89-1.28c-.44-.11-.66-.31-.68-.59-.01-.28.18-.67.58-1.18l6.98-8.92c.37-.47.74-.8,1.1-.99.37-.19.7-.25,1-.17s.46.25.46.53c0,.28-.18.66-.55,1.13Z" fill="#fff" stroke="#191a1c" stroke-miterlimit="10" stroke-width=".19"/><path id="uuid-bf4e3660-8050-4ad4-bae9-4337d5343ffe" d="M36.1,25.86l-3.7-.95c-.38.5-.63.96-.76,1.39-.13.43-.13.77,0,1.04.13.27.36.44.7.53.23.06.46.08.69.07.24-.01.49-.06.77-.15.28-.09.55-.19.81-.3.26-.11.61-.27,1.05-.47.17-.07.35-.08.53-.04.19.05.3.15.33.31.03.16-.05.35-.22.57-.15.2-.4.42-.74.65-.34.23-.74.44-1.2.61s-.96.29-1.49.35-1.07.01-1.6-.13c-1.21-.32-1.84-.97-1.89-1.95-.05-.98.46-2.16,1.52-3.53.5-.65,1.05-1.22,1.64-1.73.59-.51,1.2-.92,1.82-1.23.62-.31,1.24-.52,1.87-.61.63-.09,1.22-.07,1.79.07.74.19,1.23.53,1.49,1.02.25.49.29,1.06.12,1.7-.18.64-.49,1.26-.95,1.86-.42.55-.84.88-1.24.97-.4.09-.85.08-1.34-.05ZM33.37,23.66l3.42.88c.53-.76.79-1.37.77-1.82-.02-.45-.27-.74-.77-.86s-1-.03-1.59.27c-.59.3-1.2.81-1.84,1.53Z" fill="#fff" stroke="#191a1c" stroke-miterlimit="10" stroke-width=".19"/><path id="uuid-6b8b7ce0-05a8-4234-9dcd-3c48707b7da5" d="M42.05,30.65c-.79.3-1.47.5-2.07.59-.59.1-1.16.07-1.7-.07-.49-.13-.84-.35-1.04-.68-.2-.32-.25-.7-.16-1.14.09-.44.31-.88.66-1.33.46-.6,1.02-1.08,1.68-1.42.66-.34,1.33-.51,2.02-.51.15,0,.5,0,1.07.01s1.06.01,1.48,0c.42,0,.88-.03,1.39-.06.42-.59.64-1.04.67-1.36.03-.32-.24-.55-.81-.69-.49-.12-.91-.14-1.28-.04-.36.09-.75.27-1.17.54-.41.27-.69.44-.84.52-.15.08-.34.09-.58.03-.21-.05-.34-.18-.37-.38-.03-.2.04-.42.23-.67.3-.39.7-.73,1.22-1.04.52-.3,1.12-.51,1.8-.62.68-.11,1.4-.07,2.16.12.84.21,1.42.49,1.73.85.31.35.38.8.2,1.35-.18.55-.58,1.23-1.2,2.06-.39.52-.73.96-1.01,1.33-.28.36-.59.77-.93,1.21-.32.42-.59.87-.81,1.36-.23.49-.39.8-.49.93-.17.23-.43.41-.76.56-.33.14-.61.18-.85.12-.2-.05-.31-.21-.34-.48s0-.63.1-1.1ZM44.37,27.4c-.37.05-.88.07-1.52.06-.64,0-1.08,0-1.34,0-.25,0-.54.08-.87.21-.33.13-.61.36-.86.69s-.37.65-.33.94c.04.29.24.49.59.58.38.1.8.09,1.27-.02.47-.11.89-.3,1.28-.56.43-.29.94-.82,1.52-1.59l.24-.32Z" fill="#fff" stroke="#191a1c" stroke-miterlimit="10" stroke-width=".19"/><path id="uuid-beb9e4d6-1496-4f7a-9a03-6d8973f6d668" d="M49.2,30.15l-1.41,1.87c-.34.46-.69.77-1.05.95s-.68.23-.96.16-.42-.25-.43-.53c0-.28.16-.64.5-1.09l4.69-6.21c.75-1,1.44-1.41,2.07-1.26.32.08.47.26.43.53-.03.27-.21.63-.54,1.09.58-.4,1.08-.68,1.5-.85.42-.17.84-.21,1.25-.1s.72.32.93.65c.21.33.17.69-.12,1.08-.2.27-.46.48-.75.61-.3.14-.54.18-.73.13-.07-.02-.21-.11-.41-.28-.2-.17-.4-.28-.61-.34-.29-.07-.58-.05-.89.08-.31.13-.64.34-1,.66-.35.31-.73.7-1.12,1.15-.39.46-.84,1.02-1.34,1.69Z" fill="#fff" stroke="#191a1c" stroke-miterlimit="10" stroke-width=".19"/><path id="uuid-79771e7f-410c-474b-9468-9e9e947b7a3d" d="M58.95,27.12l-.2.27c.73-.43,1.4-.72,1.99-.86s1.16-.14,1.69,0,.89.38,1.11.74c.22.36.26.8.11,1.33-.07.31-.21.63-.41.96-.2.33-.48.74-.85,1.24l-3.13,4.22c-.34.46-.69.78-1.04.96s-.68.24-.97.17-.45-.26-.45-.55c0-.29.16-.65.49-1.1l2.81-3.78c.55-.74.89-1.34,1-1.78.11-.44-.1-.73-.64-.86-.35-.09-.76-.05-1.23.11-.47.17-.92.44-1.37.82-.35.31-.86.92-1.55,1.84l-2.11,2.83c-.34.46-.69.78-1.05.96-.36.18-.68.23-.98.16s-.43-.25-.43-.54c0-.29.16-.65.49-1.09l4.87-6.49c.32-.43.64-.72.96-.89s.62-.22.9-.15c.17.04.29.13.36.26.07.13.08.3.02.5-.05.21-.18.44-.38.71Z" fill="#fff" stroke="#191a1c" stroke-miterlimit="10" stroke-width=".19"/><path id="uuid-4d7e1ef4-7143-4e70-9339-71b67aa274eb" d="M74.02,35.16l-2.23,3.07c-.35.49-.72.83-1.09,1.02-.37.19-.72.25-1.03.16s-.47-.27-.48-.56c-.01-.29.16-.68.51-1.17l2.68-3.66c.42-.58.73-1.03.93-1.35s.29-.61.29-.85c0-.24-.17-.41-.5-.49-.66-.17-1.28-.02-1.87.44-.58.46-1.23,1.17-1.93,2.13l-2.27,3.1c-.35.48-.71.81-1.08,1.01-.37.2-.71.25-1.02.17s-.47-.27-.48-.56c-.01-.29.15-.68.5-1.16l4.8-6.52c.31-.43.64-.73.98-.91.34-.18.65-.23.93-.16s.43.23.46.49c.03.25-.09.56-.35.93l-.16.22c.7-.38,1.33-.64,1.89-.76.56-.12,1.09-.12,1.58,0s.86.35,1.07.67c.2.32.25.74.15,1.27.68-.38,1.31-.64,1.86-.76.56-.13,1.08-.13,1.55,0,.56.14.95.39,1.18.73.23.35.27.78.14,1.29-.13.46-.51,1.14-1.16,2.03l-3.27,4.52c-.35.49-.72.83-1.09,1.02-.37.19-.72.25-1.04.16s-.48-.27-.49-.57c-.02-.3.15-.69.5-1.17l2.82-3.89c.36-.5.63-.9.81-1.2.18-.31.26-.58.24-.83s-.19-.41-.53-.49c-.27-.07-.59-.04-.96.07-.37.12-.73.31-1.09.58-.43.35-1,1.01-1.72,1.99Z" fill="#fff" stroke="#191a1c" stroke-miterlimit="10" stroke-width=".19"/><path id="uuid-22da1f56-9623-499c-b493-fb6a607ed0bb" d="M88.7,38.73c-.5.7-1.05,1.32-1.67,1.85-.62.54-1.26.97-1.93,1.3-.67.33-1.34.54-2.01.63-.67.09-1.32.06-1.96-.11s-1.11-.43-1.45-.79c-.34-.36-.53-.8-.59-1.32-.06-.52.02-1.09.25-1.72.23-.63.59-1.28,1.09-1.98s1.06-1.32,1.68-1.85c.61-.53,1.24-.96,1.9-1.28.65-.32,1.32-.53,1.99-.62.67-.09,1.31-.06,1.93.09s1.12.42,1.47.77c.35.36.56.79.63,1.3.07.51-.01,1.08-.23,1.71s-.59,1.3-1.09,2ZM86.61,38.19c.68-.95,1.02-1.74,1.03-2.36,0-.62-.31-1.01-.94-1.17-.41-.1-.85-.08-1.32.08-.48.16-.96.44-1.46.86s-.97.93-1.41,1.54-.74,1.16-.9,1.66c-.16.5-.18.91-.05,1.23.13.32.41.54.82.65.63.16,1.32.03,2.08-.41.76-.44,1.47-1.13,2.15-2.07Z" fill="#fff" stroke="#191a1c" stroke-miterlimit="10" stroke-width=".19"/><path id="uuid-6035a189-3be2-467a-bea4-a5d9156c859c" d="M91.46,41.08l-1.4,1.97c-.34.48-.7.81-1.07,1s-.71.24-1.02.16-.47-.27-.49-.56c-.02-.29.13-.68.47-1.15l4.64-6.52c.74-1.05,1.46-1.48,2.14-1.31.35.09.51.27.49.56-.02.28-.19.67-.52,1.15.59-.41,1.11-.71,1.55-.89.44-.18.88-.21,1.32-.1s.79.34,1.03.69c.25.35.22.73-.06,1.14-.2.29-.46.5-.77.64-.31.14-.57.18-.78.13-.08-.02-.23-.12-.45-.3-.22-.18-.45-.3-.67-.36-.31-.08-.63-.05-.95.08-.32.13-.66.36-1.02.69-.36.33-.73.73-1.12,1.21-.39.48-.83,1.07-1.34,1.78Z" fill="#fff" stroke="#191a1c" stroke-miterlimit="10" stroke-width=".19"/><path id="uuid-8e4e2d3c-b820-464b-80ac-4a1f86ce9df4" d="M102.45,42.95l-4.18-1.08c-.37.54-.61,1.04-.71,1.5-.1.46-.07.84.1,1.13.17.29.44.49.83.59.26.07.51.09.77.08.26-.01.54-.06.84-.15.3-.09.59-.2.87-.32.28-.12.65-.28,1.12-.49.18-.08.38-.09.58-.03.22.06.35.17.4.34.04.17-.02.38-.19.62-.15.22-.4.45-.76.7-.35.25-.78.47-1.27.65s-1.03.31-1.62.36-1.18,0-1.78-.16c-1.37-.36-2.13-1.08-2.28-2.15-.15-1.07.31-2.34,1.35-3.82.49-.7,1.04-1.32,1.65-1.86.61-.55,1.24-.99,1.89-1.32.66-.33,1.33-.55,2.01-.64.68-.09,1.35-.06,1.99.1.84.21,1.42.59,1.74,1.13.33.54.43,1.16.29,1.85-.13.7-.42,1.37-.87,2.01-.42.6-.84.95-1.28,1.04-.43.1-.93.07-1.49-.07ZM99.21,40.53l3.88.99c.52-.82.74-1.48.68-1.97-.06-.49-.37-.8-.93-.94s-1.11-.04-1.74.28c-.63.32-1.26.87-1.89,1.64Z" fill="#fff" stroke="#191a1c" stroke-miterlimit="10" stroke-width=".19"/></g></g></g></g></svg>