<svg id="uuid-1983e857-42a0-4442-b57f-aece1a14262a" xmlns="http://www.w3.org/2000/svg" width="122.59mm" height="77.35mm" xmlns:xlink="http://www.w3.org/1999/xlink" viewBox="0 0 347.49 219.26"><defs><linearGradient id="uuid-de2a0c6e-46b5-4e10-b56f-cd929b0d8a01" x1="15.77" y1="206.45" x2="363.51" y2="113.27" gradientUnits="userSpaceOnUse"><stop offset="0" stop-color="#234"/><stop offset=".21" stop-color="#274962"/><stop offset=".22" stop-color="#264a65"/><stop offset=".36" stop-color="#245a82"/><stop offset=".37" stop-color="#255d8a"/><stop offset=".42" stop-color="#2b6aaa"/><stop offset=".44" stop-color="#2e6fb6"/><stop offset=".46" stop-color="#3876ba"/><stop offset=".49" stop-color="#4982c3"/><stop offset=".51" stop-color="#5087c6"/><stop offset=".52" stop-color="#518dca"/><stop offset=".55" stop-color="#54a4da"/><stop offset=".57" stop-color="#57b3e4"/><stop offset=".6" stop-color="#58b8e8"/><stop offset=".61" stop-color="#53a9de"/><stop offset=".63" stop-color="#488ac8"/><stop offset=".65" stop-color="#4277ba"/><stop offset=".67" stop-color="#4071b6"/><stop offset=".7" stop-color="#2664aa"/><stop offset=".74" stop-color="#165ca2"/><stop offset=".77" stop-color="#115aa0"/><stop offset=".77" stop-color="#115495"/><stop offset=".79" stop-color="#144374"/><stop offset=".8" stop-color="#15375d"/><stop offset=".82" stop-color="#162f4e"/><stop offset=".83" stop-color="#172d4a"/><stop offset=".84" stop-color="#162a45"/><stop offset=".89" stop-color="#132033"/><stop offset=".94" stop-color="#121a27"/><stop offset="1" stop-color="#121924"/></linearGradient><linearGradient id="uuid-f4094f3f-ea82-4e1d-aba8-4284b603a2cb" x1="118.32" y1=".15" x2="238.34" y2="208.03" gradientUnits="userSpaceOnUse"><stop offset="0" stop-color="#27303d"/><stop offset=".24" stop-color="#1f2531"/><stop offset=".55" stop-color="#151d28"/><stop offset=".87" stop-color="#141d2e"/><stop offset=".9" stop-color="#141f32"/><stop offset=".93" stop-color="#162740"/><stop offset=".96" stop-color="#183456"/><stop offset=".99" stop-color="#1c4775"/><stop offset="1" stop-color="#1d4c7e"/></linearGradient><linearGradient id="uuid-7f770d7c-35dc-42c4-a100-3bf9bfdbef6f" x1="332.93" y1="134.73" x2="11.28" y2="78.02" xlink:href="#uuid-de2a0c6e-46b5-4e10-b56f-cd929b0d8a01"/><linearGradient id="uuid-0d10e4de-d370-47bf-97e1-4e569fa5eb90" x1="142.36" y1="168.33" x2="156.62" y2="98.07" gradientUnits="userSpaceOnUse"><stop offset=".13" stop-color="#429ad5" stop-opacity="0"/><stop offset=".27" stop-color="#429ad5" stop-opacity=".02"/><stop offset=".39" stop-color="#429ad5" stop-opacity=".07"/><stop offset=".51" stop-color="#429ad5" stop-opacity=".15"/><stop offset=".62" stop-color="#429ad5" stop-opacity=".27"/><stop offset=".72" stop-color="#429ad5" stop-opacity=".42"/><stop offset=".83" stop-color="#429ad5" stop-opacity=".6"/><stop offset=".93" stop-color="#429ad5" stop-opacity=".82"/><stop offset="1" stop-color="#439ad5"/></linearGradient></defs><g id="uuid-e618867b-f78b-4183-8f20-a4d2047e9102"><g id="uuid-b3462486-67f8-4df6-84fa-8adc8c4c7c60"><path id="uuid-df18a0a2-8b06-4de0-8bc9-2943ea39f5cd" d="M347.07,51.94c-.16,2.09-.79,4.17-2,5.86l-101.85,144.67c-9.42,12.64-22.29,11.31-27.41,9.83L14.84,155.8c-3.38-.95-6.6-2.48-9.36-4.66-4.6-3.64-5.57-7.07-4.93-10.11l-.16.16c-.78,6.26-.86,11.97,7.34,16.95,3,1.83,5.97,3.7,9.36,4.66l190.79,53.64c16.47,4.13,22.52,4.59,34.05-4.65,3.06-2.45,5.69-5.39,7.94-8.59l92.68-131.64c4.02-5.68,4.98-8.2,4.52-19.62Z" fill="url(#uuid-de2a0c6e-46b5-4e10-b56f-cd929b0d8a01)"/><path id="uuid-7dcd21dd-1969-4eb6-b52b-75178fabd701" d="M215.8,212.3L14.84,155.8c-3.38-.95-6.6-2.48-9.36-4.66-10.63-8.4-1.86-15.73,1.3-19.61L106.82,8.53C116.12-2.17,125.88-.03,138.89,2.17l203.08,39.8c5,.99,6.97,10.4,3.1,15.82l-101.85,144.67c-9.42,12.64-22.29,11.31-27.41,9.83Z" fill="url(#uuid-f4094f3f-ea82-4e1d-aba8-4284b603a2cb)" stroke="url(#uuid-7f770d7c-35dc-42c4-a100-3bf9bfdbef6f)" stroke-miterlimit="10" stroke-width=".75"/><g id="uuid-25e34cec-238d-419b-9cbd-c35ba56bc31d"><path id="uuid-2c8b8cbc-db02-4529-818c-0cf59408a68b" d="M35.33,137.42c20.05-4.72,35.65-10.56,45.68-14.9,7.24-3.13,16.69-.99,21.02,4.76l1.58,3.95c2.09,5.22,9.47,8.23,16.08,6.52l9.9-2.57c4.28-1.11,9.01-1.15,13.5-.1l3.92.92c6.51,1.52,13.42.82,18.85-1.93l34.24-17.31c4.46-2.25,10.89.02,11.75,4.16l.85,18.2c.33,7.11,10.22,12.33,18.98,9.97l29.51-7.97-39.21,46.03-186.64-49.73Z" fill="url(#uuid-0d10e4de-d370-47bf-97e1-4e569fa5eb90)"/><path id="uuid-199fcad7-afd9-415b-b434-d96e57478bc4" d="M212.69,139.13l-.85-18.2c-.86-4.14-7.29-6.42-11.75-4.16l-34.24,17.31c-5.43,2.75-12.34,3.45-18.85,1.93l-3.92-.92c-4.49-1.05-9.21-1.02-13.5.1l-9.9,2.57c-6.61,1.71-13.99-1.29-16.08-6.52l-1.58-3.95c-4.33-5.75-13.79-7.89-21.02-4.76-10.03,4.34-25.63,10.18-45.68,14.9,20.05-4.72,33.89-8.67,43.92-13,7.24-3.13,16.69-.98,21.02,4.78l1.58,3.96c2.08,5.23,9.46,8.24,16.07,6.53l9.9-2.56c4.28-1.11,9-1.14,13.49-.09l3.92.92c6.51,1.53,13.42.82,18.85-1.92l34.24-17.32c4.46-2.25,10.89.02,11.74,4.17l.84,18.22c.33,7.12,10.21,12.35,18.98,9.98l31.31-9.96-29.51,7.97c-8.76,2.37-18.65-2.85-18.98-9.97Z" fill="#438ccb"/></g><g id="uuid-9a210125-197a-4aeb-8798-0e38731d67a9"><path id="uuid-562169b0-0397-42bd-95a2-a7bd19680ee0" d="M293.91,59.38L122.32,27.72c-3.34-.62-4.09-3.09-1.69-5.52l.28-.29c2.39-2.42,7.03-3.9,10.36-3.29l171.43,31.15c3.65.66,4.71,3.28,2.36,5.85l-.28.31c-2.35,2.58-7.22,4.12-10.87,3.45Z" fill="#6c8cad"/><path id="uuid-67c876a7-46c8-4890-9a35-91e1fb511e05" d="M260.37,77.8l-156.13-31.17c-3.3-.66-4.01-3.25-1.6-5.8l.95-1c2.4-2.54,7.01-4.07,10.31-3.42l155.99,30.67c3.56.7,4.54,3.43,2.17,6.1l-.94,1.06c-2.37,2.68-7.19,4.27-10.75,3.56Z" fill="#6c8cad"/><path id="uuid-f1f470c7-ef7f-4638-b343-2bfd6a8ca823" d="M260.66,100.9l-172.82-35.97c-3.36-.7-4.02-3.34-1.5-5.9l.3-.3c2.52-2.55,7.27-4.06,10.62-3.37l172.67,35.41c3.68.75,4.66,3.56,2.18,6.27l-.29.32c-2.48,2.72-7.48,4.3-11.16,3.54Z" fill="#6c8cad"/></g></g></g></svg>