<svg id="uuid-16708715-37cf-4f4e-9f51-83078ffcc17c" xmlns="http://www.w3.org/2000/svg" width="122.59mm" height="77.35mm" xmlns:xlink="http://www.w3.org/1999/xlink" viewBox="0 0 347.49 219.26"><defs><linearGradient id="uuid-303c9c42-28ec-446c-9d81-f0c694d4d7b6" x1="15.77" y1="206.45" x2="363.51" y2="113.27" gradientUnits="userSpaceOnUse"><stop offset="0" stop-color="#234"/><stop offset=".21" stop-color="#274962"/><stop offset=".22" stop-color="#264a65"/><stop offset=".36" stop-color="#245a82"/><stop offset=".37" stop-color="#255d8a"/><stop offset=".42" stop-color="#2b6aaa"/><stop offset=".44" stop-color="#2e6fb6"/><stop offset=".46" stop-color="#3876ba"/><stop offset=".49" stop-color="#4982c3"/><stop offset=".51" stop-color="#5087c6"/><stop offset=".52" stop-color="#518dca"/><stop offset=".55" stop-color="#54a4da"/><stop offset=".57" stop-color="#57b3e4"/><stop offset=".6" stop-color="#58b8e8"/><stop offset=".61" stop-color="#53a9de"/><stop offset=".63" stop-color="#488ac8"/><stop offset=".65" stop-color="#4277ba"/><stop offset=".67" stop-color="#4071b6"/><stop offset=".7" stop-color="#2664aa"/><stop offset=".74" stop-color="#165ca2"/><stop offset=".77" stop-color="#115aa0"/><stop offset=".77" stop-color="#115495"/><stop offset=".79" stop-color="#144374"/><stop offset=".8" stop-color="#15375d"/><stop offset=".82" stop-color="#162f4e"/><stop offset=".83" stop-color="#172d4a"/><stop offset=".84" stop-color="#162a45"/><stop offset=".89" stop-color="#132033"/><stop offset=".94" stop-color="#121a27"/><stop offset="1" stop-color="#121924"/></linearGradient><linearGradient id="uuid-95100f6c-e476-43fe-9022-28b873991b71" x1="118.32" y1=".15" x2="238.34" y2="208.03" gradientUnits="userSpaceOnUse"><stop offset="0" stop-color="#27303d"/><stop offset=".24" stop-color="#1f2531"/><stop offset=".55" stop-color="#151d28"/><stop offset=".87" stop-color="#141d2e"/><stop offset=".9" stop-color="#141f32"/><stop offset=".93" stop-color="#162740"/><stop offset=".96" stop-color="#183456"/><stop offset=".99" stop-color="#1c4775"/><stop offset="1" stop-color="#1d4c7e"/></linearGradient><linearGradient id="uuid-02d6109c-5872-44c9-ab07-ef3855d09bc6" x1="332.93" y1="134.73" x2="11.28" y2="78.02" xlink:href="#uuid-303c9c42-28ec-446c-9d81-f0c694d4d7b6"/><linearGradient id="uuid-58eeef99-29aa-4ade-96ee-84470936d056" x1="159.8" y1="89.85" x2="124.99" y2="89.85" gradientUnits="userSpaceOnUse"><stop offset="0" stop-color="#4567b0"/><stop offset=".3" stop-color="#4161a5"/><stop offset="1" stop-color="#3b578f"/></linearGradient><linearGradient id="uuid-8446f0e4-133e-456e-86de-6fc9b2a09fa8" x1="72.05" y1="85.06" x2="125.88" y2="85.06" gradientUnits="userSpaceOnUse"><stop offset="0" stop-color="#89a3d4"/><stop offset=".8" stop-color="#5373b9"/><stop offset="1" stop-color="#4e73ba"/></linearGradient><linearGradient id="uuid-519ca79c-3852-4316-bd41-5de5ecfa98b0" x1="141.65" y1="54.74" x2="170.15" y2="54.74" gradientUnits="userSpaceOnUse"><stop offset="0" stop-color="#9681ba"/><stop offset=".23" stop-color="#a07ab3"/><stop offset=".54" stop-color="#ab74ad"/><stop offset=".7" stop-color="#b072aa"/><stop offset="1" stop-color="#b471a9"/></linearGradient><linearGradient id="uuid-81477d74-b3e7-475b-813d-ecf9db066c7e" x1="82.84" y1="46.58" x2="149.39" y2="46.58" gradientUnits="userSpaceOnUse"><stop offset="0" stop-color="#82c8e4"/><stop offset=".03" stop-color="#7fc7e3"/><stop offset=".34" stop-color="#6dbfdf"/><stop offset=".66" stop-color="#61bbdc"/><stop offset="1" stop-color="#5ebadc"/></linearGradient></defs><g id="uuid-25e43fbe-9169-4709-98d1-bd9b83ae62a2"><g id="uuid-91b4a89c-6e71-4f8a-a2ee-f2a3d2bb9ca4"><path id="uuid-d73b1830-cf2b-49b8-a7b7-05b76125955b" d="M347.07,51.94c-.16,2.09-.79,4.17-2,5.86l-101.85,144.67c-9.42,12.64-22.29,11.31-27.41,9.83L14.84,155.8c-3.38-.95-6.6-2.48-9.36-4.66-4.6-3.64-5.57-7.07-4.93-10.11l-.16.16c-.78,6.26-.86,11.97,7.34,16.95,3,1.83,5.97,3.7,9.36,4.66l190.79,53.64c16.47,4.13,22.52,4.59,34.05-4.65,3.06-2.45,5.69-5.39,7.94-8.59l92.68-131.64c4.02-5.68,4.98-8.2,4.52-19.62Z" fill="url(#uuid-303c9c42-28ec-446c-9d81-f0c694d4d7b6)"/><path id="uuid-797ca78f-b41c-4f8e-8de6-7df3634e0ebc" d="M215.8,212.3L14.84,155.8c-3.38-.95-6.6-2.48-9.36-4.66-10.63-8.4-1.86-15.73,1.3-19.61L106.82,8.53C116.12-2.17,125.88-.03,138.89,2.17l203.08,39.8c5,.99,6.97,10.4,3.1,15.82l-101.85,144.67c-9.42,12.64-22.29,11.31-27.41,9.83Z" fill="url(#uuid-95100f6c-e476-43fe-9022-28b873991b71)" stroke="url(#uuid-02d6109c-5872-44c9-ab07-ef3855d09bc6)" stroke-miterlimit="10" stroke-width=".75"/><g id="uuid-24e06835-dfae-4a42-8bea-98f0f8de3f39"><path id="uuid-75f8a285-1c4b-4abe-9c2c-dc0f89eef229" d="M302.68,71.6l-97.52-20.96c-1.9-.41-2.34-2.18-1-3.96l.16-.21c1.34-1.78,3.95-2.89,5.84-2.49l97.43,20.59c2.07.44,2.7,2.32,1.39,4.2l-.16.22c-1.31,1.88-4.06,3.05-6.13,2.61Z" fill="#6c8cad"/><path id="uuid-b165f67b-d665-4066-adbe-b2cbbf77c9c1" d="M275.25,87.3l-83.76-18.81c-1.77-.4-2.17-2.09-.9-3.77l.5-.67c1.26-1.68,3.72-2.73,5.49-2.33l83.68,18.49c1.91.42,2.45,2.2,1.21,3.96l-.49.7c-1.25,1.77-3.81,2.86-5.72,2.43Z" fill="#6c8cad"/><path id="uuid-dd262166-f793-490b-b493-19a32af4fc24" d="M241.03,101.52l-63.6-14.92c-1.56-.37-1.9-1.88-.77-3.39l1.07-1.42c1.13-1.5,3.31-2.43,4.86-2.07l63.54,14.66c1.65.38,2.09,1.96.97,3.52l-1.06,1.48c-1.12,1.57-3.37,2.52-5.03,2.14Z" fill="#6c8cad"/><path id="uuid-6986f00e-9bde-4124-839e-24cea4e61585" d="M262.41,129.32l-98.26-24.06c-1.91-.47-2.31-2.36-.9-4.24l.17-.22c1.41-1.87,4.09-3.01,5.99-2.55l98.17,23.65c2.09.5,2.67,2.52,1.29,4.5l-.16.24c-1.38,1.99-4.2,3.19-6.3,2.67Z" fill="#6c8cad"/></g><g id="uuid-3747db37-12a6-4afe-ac4e-8d10f2dd7e54"><path id="uuid-5747f244-6da2-4d26-9886-437317f4c063" d="M126.88,103.49c12.61-5.29,24.57-13.91,32.92-24.54l-11.73-2.73c-5.92,7.38-14.29,13.35-23.08,17.02l1.89,10.25Z" fill="url(#uuid-58eeef99-29aa-4ade-96ee-84470936d056)"/><path id="uuid-234139dd-bf36-4810-a9c3-9f95eeed5af3" d="M123.99,93.64c-8.55,3.39-17.36,4.58-24.59,2.78-14.81-3.68-17.31-18.39-6.14-32.97l-11-2.56c-16.14,20.64-12.93,41.74,8.08,47.1,10.41,2.65,23.18.9,35.54-4.1l-1.89-10.25Z" fill="url(#uuid-8446f0e4-133e-456e-86de-6fc9b2a09fa8)"/><path id="uuid-29fac6dc-6d33-46f4-9c0f-f641f6ff76d8" d="M150.39,31.35c-.07-.02-.15-.03-.22-.04l-8.53,10.88c.07.02.15.03.22.04,15.21,3.31,18.42,18.11,6.82,33.2l11.73,2.73c16.33-21.43,11.53-42.26-10.02-46.81Z" fill="url(#uuid-519ca79c-3852-4316-bd41-5de5ecfa98b0)"/><path id="uuid-ba0d548e-ac0c-482f-89b4-00a62718896c" d="M149.39,31.17c-21.05-3.87-50.31,8.8-66.54,28.97l11,2.56c11.42-14.3,32.09-23.31,47.01-20.65l8.53-10.88Z" fill="url(#uuid-81477d74-b3e7-475b-813d-ecf9db066c7e)"/></g></g></g></svg>