<svg id="uuid-1e878b62-1384-42d3-861e-e00b78a60f6e" xmlns="http://www.w3.org/2000/svg" width="122.59mm" height="77.35mm" xmlns:xlink="http://www.w3.org/1999/xlink" viewBox="0 0 347.49 219.26"><defs><linearGradient id="uuid-5329477a-cbd5-4f75-8860-b88adaafa5b4" x1="15.77" y1="206.45" x2="363.51" y2="113.27" gradientUnits="userSpaceOnUse"><stop offset="0" stop-color="#234"/><stop offset=".21" stop-color="#274962"/><stop offset=".22" stop-color="#264a65"/><stop offset=".36" stop-color="#245a82"/><stop offset=".37" stop-color="#255d8a"/><stop offset=".42" stop-color="#2b6aaa"/><stop offset=".44" stop-color="#2e6fb6"/><stop offset=".46" stop-color="#3876ba"/><stop offset=".49" stop-color="#4982c3"/><stop offset=".51" stop-color="#5087c6"/><stop offset=".52" stop-color="#518dca"/><stop offset=".55" stop-color="#54a4da"/><stop offset=".57" stop-color="#57b3e4"/><stop offset=".6" stop-color="#58b8e8"/><stop offset=".61" stop-color="#53a9de"/><stop offset=".63" stop-color="#488ac8"/><stop offset=".65" stop-color="#4277ba"/><stop offset=".67" stop-color="#4071b6"/><stop offset=".7" stop-color="#2664aa"/><stop offset=".74" stop-color="#165ca2"/><stop offset=".77" stop-color="#115aa0"/><stop offset=".77" stop-color="#115495"/><stop offset=".79" stop-color="#144374"/><stop offset=".8" stop-color="#15375d"/><stop offset=".82" stop-color="#162f4e"/><stop offset=".83" stop-color="#172d4a"/><stop offset=".84" stop-color="#162a45"/><stop offset=".89" stop-color="#132033"/><stop offset=".94" stop-color="#121a27"/><stop offset="1" stop-color="#121924"/></linearGradient><linearGradient id="uuid-1d5fd889-9b69-4065-8ddc-72c2603bb7cd" x1="118.32" y1=".15" x2="238.34" y2="208.03" gradientUnits="userSpaceOnUse"><stop offset="0" stop-color="#27303d"/><stop offset=".24" stop-color="#1f2531"/><stop offset=".55" stop-color="#151d28"/><stop offset=".87" stop-color="#141d2e"/><stop offset=".9" stop-color="#141f32"/><stop offset=".93" stop-color="#162740"/><stop offset=".96" stop-color="#183456"/><stop offset=".99" stop-color="#1c4775"/><stop offset="1" stop-color="#1d4c7e"/></linearGradient><linearGradient id="uuid-3683083e-496a-4d24-900e-75eecec0ffb6" x1="332.93" y1="134.73" x2="11.28" y2="78.02" xlink:href="#uuid-5329477a-cbd5-4f75-8860-b88adaafa5b4"/></defs><g id="uuid-96fb907c-dab5-4c00-b7ce-c4648c9f9ec0"><g id="uuid-edf20ec2-4987-4307-8853-d92efd3a4220"><path id="uuid-2a6bce26-6b46-4dd1-9a58-b0c25004b0b3" d="M347.07,51.94c-.16,2.09-.79,4.17-2,5.86l-101.85,144.67c-9.42,12.64-22.29,11.31-27.41,9.83L14.84,155.8c-3.38-.95-6.6-2.48-9.36-4.66-4.6-3.64-5.57-7.07-4.93-10.11l-.16.16c-.78,6.26-.86,11.97,7.34,16.95,3,1.83,5.97,3.7,9.36,4.66l190.79,53.64c16.47,4.13,22.52,4.59,34.05-4.65,3.06-2.45,5.69-5.39,7.94-8.59l92.68-131.64c4.02-5.68,4.98-8.2,4.52-19.62Z" fill="url(#uuid-5329477a-cbd5-4f75-8860-b88adaafa5b4)"/><path id="uuid-1bd73a20-e8ba-4ea0-a58b-efce1f3a046a" d="M215.8,212.3L14.84,155.8c-3.38-.95-6.6-2.48-9.36-4.66-10.63-8.4-1.86-15.73,1.3-19.61L106.82,8.53C116.12-2.17,125.88-.03,138.89,2.17l203.08,39.8c5,.99,6.97,10.4,3.1,15.82l-101.85,144.67c-9.42,12.64-22.29,11.31-27.41,9.83Z" fill="url(#uuid-1d5fd889-9b69-4065-8ddc-72c2603bb7cd)" stroke="url(#uuid-3683083e-496a-4d24-900e-75eecec0ffb6)" stroke-miterlimit="10" stroke-width=".75"/><g id="uuid-8a61516d-dcdc-478a-9db8-ceda7925d411"><path id="uuid-eae77a95-46ac-4eae-ba55-536a3ba516cf" d="M301.94,62.7L126.46,23.81c-3.47-.77-4.46-3.34-2.21-5.73l.27-.28c2.23-2.38,6.82-3.68,10.26-2.92l174.07,38.29c3.64.8,5.11,3.51,3.29,6.05l-.22.3c-1.84,2.56-6.31,3.99-9.97,3.18Z" fill="#6c8cad"/><path id="uuid-ad9dbcad-6f10-4954-9b36-a9f40c22c112" d="M262.98,76.52L109.71,41.73c-3.28-.75-4.17-3.24-2-5.55l.86-.91c2.16-2.3,6.54-3.57,9.8-2.83l152.02,34.24c3.42.77,4.72,3.37,2.89,5.82l-.72.97c-1.84,2.47-6.13,3.84-9.58,3.06Z" fill="#6c8cad"/><path id="uuid-f9360793-280d-4ff7-86be-4fdc3ac31320" d="M275.9,105.39L93.66,61.56c-3.6-.86-4.49-3.71-2.02-6.35l.29-.31c2.46-2.62,7.33-4.05,10.9-3.2l180.7,43.11c3.78.9,5.23,3.92,3.21,6.75l-.24.34c-2.03,2.85-6.79,4.42-10.6,3.5Z" fill="#6c8cad"/><path id="uuid-348ee1bd-dd19-49ef-b250-953a21a561db" d="M259.08,125.8l-182.59-44.7c-3.6-.88-4.5-3.63-2.01-6.12l.29-.3c2.47-2.48,7.37-3.78,10.94-2.91l181.12,44c3.79.92,5.21,3.83,3.16,6.51l-.24.32c-2.07,2.69-6.85,4.13-10.67,3.19Z" fill="#6c8cad"/><path id="uuid-11fed6e4-f7b1-43fd-bf60-24020ea14f71" d="M217.31,139.77L57.9,99.82c-3.41-.85-4.21-3.52-1.79-5.94l.95-.95c2.4-2.4,7.07-3.66,10.46-2.82l158.11,39.31c3.56.89,4.8,3.68,2.75,6.26l-.81,1.02c-2.06,2.59-6.66,3.97-10.25,3.07Z" fill="#6c8cad"/><path id="uuid-dc4d5ba0-ee3a-4e3e-b20e-6fde8b04237c" d="M229.42,170.8L39.93,120.6c-3.73-.99-4.51-4.04-1.77-6.79l.32-.33c2.73-2.74,7.93-4.17,11.63-3.19l187.91,49.37c3.94,1.04,5.31,4.28,3.03,7.26l-.27.35c-2.29,3-7.38,4.59-11.36,3.53Z" fill="#6c8cad"/></g></g></g></svg>