<?xml version="1.0" encoding="UTF-8"?><svg id="uuid-bdc31ad3-f776-4d37-aeb4-b176f26c95d5" xmlns="http://www.w3.org/2000/svg" width="121.9mm" height="75.4mm" xmlns:xlink="http://www.w3.org/1999/xlink" viewBox="0 0 345.53 213.72"><defs><linearGradient id="uuid-60b82bbe-a2e0-47c3-9f8c-c82ed525a505" x1="-8.4" y1="155.63" x2="343.97" y2="61.21" gradientTransform="translate(357.71 31.3) rotate(-170) scale(1 -1)" gradientUnits="userSpaceOnUse"><stop offset="0" stop-color="#242932"/><stop offset=".27" stop-color="#2d323d"/><stop offset=".6" stop-color="#3d4351"/><stop offset=".61" stop-color="#3a404d"/><stop offset=".72" stop-color="#2d333e"/><stop offset=".83" stop-color="#262b34"/><stop offset="1" stop-color="#242932"/></linearGradient><linearGradient id="uuid-4aabccf5-3e3d-4d2c-9dbc-588e9ef0d1c5" x1="94.03" y1="23.8" x2="354.07" y2="23.8" gradientTransform="translate(357.71 31.3) rotate(-170) scale(1 -1)" gradientUnits="userSpaceOnUse"><stop offset="0" stop-color="#242932"/><stop offset=".18" stop-color="#292e39"/><stop offset=".44" stop-color="#393f4c"/><stop offset=".49" stop-color="#3d4351"/><stop offset=".65" stop-color="#343945"/><stop offset="1" stop-color="#242932"/></linearGradient></defs><g id="uuid-9778f9b2-1470-4e68-8424-35e315e6ef46"><g id="uuid-54148a40-0603-4364-9652-ecef22a19816"><path d="M1.82,10.65h.01c-.25,1.43-.02,3.1.81,4.87l6.65,14.25-1.74,9.85L.91,25.37c-.96-2.05-1.13-3.95-.66-5.51l-.04-.1,1.61-9.11Z" fill="#323945"/><path d="M101.25,203.8l239.96-28.21c2.39-.28,3.84-1.77,4.22-3.9h0s-1.72,9.78-1.72,9.78h0c-.36,2.16-1.82,3.68-4.23,3.97l-239.96,28.21c-5.58.66-12.36-3.58-15.1-9.45L7.56,39.62l1.74-9.85,76.85,164.58c2.74,5.87,9.51,10.11,15.1,9.45Z" fill="#1d212a"/><path id="uuid-0363c75b-d98f-453b-b5bc-da8e037a86b8" d="M101.25,203.8l239.96-28.21c4.4-.52,5.64-5.1,2.81-10.23L264.11,20.61,9.3,29.77l76.85,164.58c2.74,5.87,9.51,10.11,15.1,9.45Z" fill="url(#uuid-60b82bbe-a2e0-47c3-9f8c-c82ed525a505)"/><g id="uuid-2288dcea-cb71-44e0-ae0d-a653b6bb1953"><g id="uuid-883636d6-2087-430d-94d5-c2a1297cf8a2"><path id="uuid-2875d5b4-828a-4241-ab0e-00f1382bf030" d="M170.73,164.12l-22.5,2.43c-.92.1-1.37.8-1,1.56l.73,1.54c.36.76,1.39,1.3,2.31,1.2l22.44-2.47c.89-.1,1.33-.79.98-1.54l-.71-1.52c-.35-.75-1.36-1.29-2.25-1.19Z" fill="#8c762a"/><path id="uuid-501aa52d-7b00-45e2-b809-bfde2f9e5167" d="M186.85,129.97l-52.77,4.79c-1.39.13-2.08,1.18-1.53,2.34l.09.18c.55,1.17,2.13,2,3.52,1.88l52.64-4.9c1.31-.12,1.96-1.14,1.45-2.27l-.08-.18c-.51-1.13-1.99-1.96-3.31-1.84Z" fill="#8c762a"/><path id="uuid-1b0e9cfc-f108-46fe-929d-6729a62a6491" d="M246.22,155.98l-63.96,6.89c-1.37.15-2.04,1.21-1.51,2.37l.02.04c.53,1.16,2.07,1.98,3.44,1.83l63.8-7.03c1.27-.14,1.9-1.16,1.42-2.28l-.02-.03c-.49-1.12-1.92-1.92-3.19-1.78Z" fill="#439b8e"/><path id="uuid-02b5ec0c-6da7-40ca-84c7-4c3b43540a6d" d="M288.49,151.42l-32.82,3.54c-.95.1-1.42.86-1.06,1.7l.46,1.05c.36.84,1.42,1.43,2.36,1.33l32.74-3.61c.91-.1,1.36-.85,1.02-1.67l-.43-1.03c-.34-.82-1.36-1.41-2.27-1.31Z" fill="#439b8e"/><path id="uuid-0ea24a2e-cd49-4f95-ae53-92371614cf2e" d="M215.87,169.84l-62.38,7.08c-1.41.16-2.1,1.24-1.54,2.41l.02.04c.55,1.17,2.14,1.99,3.54,1.82l62.22-7.21c1.31-.15,1.96-1.19,1.46-2.32l-.02-.04c-.51-1.13-1.98-1.93-3.3-1.78Z" fill="#4e54a0"/><path id="uuid-de01b47b-8703-4303-ba6d-60c71680c80a" d="M210.88,149.15l-66.57,6.8c-1.42.15-2.12,1.23-1.56,2.42l.02.04c.56,1.19,2.17,2.03,3.59,1.88l66.4-6.94c1.32-.14,1.98-1.18,1.47-2.33l-.02-.04c-.51-1.15-2-1.97-3.33-1.83Z" fill="#439b8e"/><path id="uuid-1638cd9f-669c-45d9-82ce-8f00480a533f" d="M268.22,143.29l-46.1,4.71c-1.14.12-1.7,1.02-1.26,2.01l.26.58c.44.99,1.72,1.7,2.85,1.58l45.99-4.8c1.08-.11,1.62-.99,1.21-1.95l-.24-.57c-.41-.97-1.62-1.66-2.7-1.55Z" fill="#439b8e"/><path id="uuid-ad219e1b-7fe9-4127-b2a5-0655d53f6383" d="M233.72,136.28l-65.01,6.27c-1.39.13-2.07,1.2-1.53,2.38l.02.04c.55,1.18,2.11,2.02,3.5,1.89l64.85-6.4c1.29-.13,1.93-1.15,1.44-2.29l-.02-.04c-.5-1.14-1.95-1.96-3.24-1.84Z" fill="#439b8e"/><path id="uuid-7d06d3bf-2f49-4623-b201-edc936d200f9" d="M272.39,132.55l-28.1,2.71c-.88.09-1.32.79-.98,1.57l.57,1.31c.34.78,1.33,1.35,2.21,1.26l28.03-2.77c.85-.08,1.28-.78.96-1.55l-.55-1.29c-.33-.77-1.28-1.33-2.14-1.25Z" fill="#439b8e"/><path id="uuid-e82de2c7-e57e-4fbf-a09a-65dfec26682d" d="M151.2,109.32l-28.79,2.25c-1.35.11-2.01,1.11-1.48,2.25l.18.37c.54,1.13,2.07,1.96,3.41,1.85l28.72-2.32c1.31-.11,1.95-1.09,1.44-2.21l-.17-.37c-.51-1.12-1.99-1.94-3.3-1.84Z" fill="#3b7580"/><path id="uuid-93fcfd45-cad5-463e-98c6-5d134846aab2" d="M210.5,114.09l-57.72,4.81c-.97.08-1.44.81-1.06,1.63l.66,1.42c.38.82,1.47,1.42,2.43,1.33l57.57-4.93c.91-.08,1.35-.78,1-1.58l-.61-1.38c-.35-.8-1.37-1.38-2.28-1.3Z" fill="#376588"/><path id="uuid-d713c0bb-18d8-43ae-96a2-143ee2aa650c" d="M159.85,108.44h-.03c-1.39.11-2.07,1.16-1.52,2.35l.05.1c.55,1.19,2.11,2.06,3.49,1.95h.03c1.38-.11,2.06-1.16,1.52-2.35l-.05-.1c-.54-1.18-2.1-2.06-3.49-1.95Z" fill="#3b7580"/><path id="uuid-91e16daa-1561-4a80-b1a1-e4021b78e4a5" d="M247.79,92.12l-64.33,4.7c-1.37.1-2.05,1.15-1.52,2.35l.02.04c.54,1.2,2.09,2.08,3.46,1.98l64.17-4.84c1.28-.1,1.92-1.11,1.43-2.26l-.02-.04c-.49-1.16-1.93-2.02-3.21-1.92Z" fill="#3e4352"/><path id="uuid-2440e68b-3c32-4357-91e8-579d9acf875a" d="M203.71,95.34l-67.52,4.93c-1.44.11-2.15,1.18-1.58,2.41l.02.04c.57,1.22,2.2,2.13,3.64,2.02l67.35-5.08c1.34-.1,2-1.14,1.48-2.32l-.02-.04c-.52-1.18-2.03-2.06-3.37-1.96Z" fill="#4e54a0"/><path id="uuid-eaa541fc-b975-43f1-a1c1-7bf2f8359ca2" d="M150.01,84.98l-28.9,1.9c-1.36.09-2.02,1.09-1.48,2.24l.18.38c.54,1.15,2.07,2,3.43,1.91l28.83-1.96c1.31-.09,1.96-1.08,1.44-2.2l-.17-.37c-.52-1.13-2-1.98-3.32-1.89Z" fill="#3b7580"/><path id="uuid-a720d401-05f5-4749-90b9-7eb4276d398f" d="M231.18,79.55l-68.4,4.49c-1.41.09-2.1,1.15-1.55,2.37l.02.04c.55,1.22,2.14,2.12,3.54,2.03l68.22-4.64c1.3-.09,1.95-1.11,1.45-2.28l-.02-.04c-.5-1.17-1.97-2.05-3.27-1.97Z" fill="#5f6472"/><path id="uuid-359400ee-8d45-4aba-bcbb-fd1645c0ce0e" d="M205.89,67.19l-99.22,5.77c-1.25.07-1.86.99-1.36,2.04l.37.78c.5,1.05,1.91,1.84,3.16,1.77l98.96-5.99c1.12-.07,1.68-.93,1.24-1.93l-.32-.74c-.44-1-1.7-1.76-2.83-1.69Z" fill="#3b7580"/><path id="uuid-8c59b571-570e-4ab1-a128-a10eb5d43c8b" d="M197.25,67.7l-73.98,4.3c-1.19.07-1.77.94-1.3,1.95l.42.91c.47,1.01,1.81,1.77,2.99,1.7l73.78-4.47c1.09-.07,1.64-.91,1.21-1.88l-.38-.87c-.43-.97-1.66-1.71-2.76-1.64Z" fill="#439b8e"/><path id="uuid-7b20a101-2655-4f29-9761-c85d4bc334e2" d="M236.94,65.39l-23.91,1.39c-.65.04-.97.54-.72,1.12l.98,2.26c.25.58.98,1.01,1.62.97l23.85-1.44c.63-.04.94-.53.7-1.1l-.95-2.23c-.24-.57-.95-1-1.58-.97Z" fill="#3b7580"/><path id="uuid-3fadc3dc-88b1-4e90-9f76-912ffbff5f52" d="M225.39,66.06l-2.67.16c-1.32.08-1.98,1.1-1.47,2.29l.02.04c.51,1.19,2,2.08,3.32,2l2.67-.16c1.31-.08,1.97-1.1,1.46-2.28l-.02-.04c-.51-1.18-1.98-2.08-3.3-2.01Z" fill="#376588"/><path id="uuid-7740985d-1142-477f-aaa6-dd208f31b920" d="M186.55,39.68l15.76-.68c.75-.03,1.12-.6.83-1.28l-.87-2c-.29-.68-1.14-1.2-1.89-1.17l-15.8.64c-.77.03-1.14.61-.85,1.29l.89,2.02c.3.68,1.16,1.21,1.93,1.17Z" fill="#8c762a"/><path id="uuid-6164fb28-5c34-4088-951d-682db1dd9a06" d="M127.31,42.23l50.2-2.16c1.19-.05,1.78-.95,1.31-2l-.3-.68c-.47-1.06-1.81-1.87-3.01-1.83l-50.33,2.04c-1.26.05-1.88.97-1.38,2.06l.32.7c.5,1.08,1.92,1.92,3.18,1.87Z" fill="#439b8e"/><path id="uuid-77b229cb-cf5a-427a-995b-ec198cb3b9f5" d="M90,43.84l28.68-1.23c.95-.04,1.41-.73,1.04-1.55l-.78-1.69c-.38-.82-1.45-1.45-2.4-1.41l-28.76,1.17c-.98.04-1.46.74-1.06,1.57l.81,1.71c.39.83,1.5,1.46,2.48,1.42Z" fill="#439b8e"/><path id="uuid-553b3832-dfff-4394-ae52-f85704f0e000" d="M157.51,52.15l48.62-2.38c1.15-.06,1.73-.94,1.28-1.98l-.29-.66c-.45-1.04-1.75-1.83-2.91-1.78l-48.75,2.26c-1.22.06-1.82.97-1.34,2.03l.31.68c.48,1.06,1.86,1.88,3.07,1.82Z" fill="#439b8e"/><path id="uuid-300972ad-5dc5-492d-8c89-c311c471fc64" d="M109.84,54.48l38.16-1.86c1.06-.05,1.59-.84,1.17-1.77l-.54-1.19c-.42-.93-1.63-1.64-2.69-1.59l-38.26,1.78c-1.11.05-1.65.86-1.21,1.81l.57,1.22c.44.94,1.7,1.67,2.81,1.61Z" fill="#439b8e"/><path id="uuid-90ed9f6b-0b0a-47b7-a41b-b098381cb0de" d="M140.59,64.27l49.41-2.7c1.17-.06,1.75-.96,1.3-2l-.29-.67c-.46-1.04-1.78-1.83-2.96-1.77l-49.54,2.59c-1.24.06-1.85.98-1.36,2.05l.31.68c.49,1.07,1.89,1.88,3.13,1.81Z" fill="#439b8e"/><path id="uuid-0fe46e98-1558-42ec-acba-527d710e3c26" d="M107.66,66.07l23.66-1.29c.86-.05,1.28-.68.94-1.42l-.87-1.89c-.34-.74-1.32-1.3-2.18-1.26l-23.73,1.24c-.88.05-1.32.69-.96,1.44l.9,1.91c.35.75,1.35,1.31,2.23,1.27Z" fill="#439b8e"/><path id="uuid-226364fd-9b2e-4c41-be41-2ed11ec551b1" d="M200.28,61.08l25.63-1.4c.85-.05,1.27-.7.94-1.47l-.67-1.58c-.33-.77-1.28-1.35-2.13-1.31l-25.69,1.34c-.87.05-1.31.71-.97,1.49l.7,1.6c.34.78,1.32,1.37,2.19,1.32Z" fill="#3e4352"/><path id="uuid-1a29643f-1b51-4d6e-bb9b-230957230fec" d="M218.87,60.06l25.13-1.37c.83-.05,1.24-.7.92-1.45l-.66-1.56c-.32-.76-1.25-1.34-2.08-1.29l-25.19,1.32c-.86.04-1.28.71-.95,1.47l.68,1.59c.33.77,1.29,1.35,2.15,1.31Z" fill="#4e54a0"/></g><path id="uuid-7ab2d4ae-f6e8-4bba-9bee-dc91ddd3efaa" d="M77.23,39.56l-1.71.07c-.27.01-.41.21-.3.44l67.83,142.17c.1.21.38.35.63.32l1.57-.18c.25-.03.37-.22.27-.43L77.92,39.96c-.11-.23-.42-.41-.69-.4Z" fill="#3e4352"/><g id="uuid-e40b98b3-f15c-4ddd-a4b7-4916d45de5a3"><path id="uuid-100176cd-4477-462b-83d8-6279cfed91ce" d="M103.8,181.4l28.91-3.26c.66-.07.98-.58.72-1.12l-.12-.25c-.26-.55-1.01-.93-1.67-.85l-28.95,3.23c-.68.08-1.01.59-.74,1.14l.12.25c.27.55,1.04.94,1.73.86Z" fill="#3e4352"/><path id="uuid-79d9975d-329b-48ae-b769-87fe32506afe" d="M110.05,186.45l25.32-2.93c.62-.07.92-.54.68-1.05l-.17-.36c-.25-.51-.95-.87-1.57-.8l-25.35,2.91c-.64.07-.95.55-.69,1.07l.18.37c.25.52.98.88,1.61.8Z" fill="#3e4352"/><path id="uuid-9fbde11b-3e6a-47ad-af2c-f351a332bcdb" d="M98.27,170.15l29.11-3.11c.67-.07.99-.57.73-1.12l-.12-.25c-.26-.55-1.02-.94-1.68-.87l-29.15,3.08c-.69.07-1.02.58-.75,1.14l.12.25c.27.56,1.05.95,1.74.88Z" fill="#3e4352"/><path id="uuid-c1676d3b-5459-447e-9444-8f16bf935fa2" d="M106.06,175.11l24.04-2.64c.61-.07.9-.53.66-1.03l-.2-.42c-.24-.5-.93-.85-1.54-.79l-24.07,2.61c-.62.07-.93.53-.68,1.04l.21.42c.25.51.95.86,1.58.79Z" fill="#3e4352"/><path id="uuid-b2dfb25a-0049-458c-af48-c17c8c0d48f0" d="M109.56,157.93l13.21-1.34c.46-.05.69-.39.5-.77l-.42-.88c-.18-.38-.7-.65-1.17-.61l-13.22,1.32c-.47.05-.7.4-.51.78l.43.88c.19.38.72.66,1.18.61Z" fill="#3e4352"/><path id="uuid-1745f369-08da-48e2-92b9-a6fcd8c21ffb" d="M108.52,163.83l16.78-1.75c.51-.05.77-.44.56-.87l-.34-.71c-.2-.42-.79-.73-1.3-.67l-16.8,1.73c-.52.05-.78.45-.57.87l.35.71c.21.43.8.73,1.32.68Z" fill="#3e4352"/><path id="uuid-e71ad90b-097d-4851-a71d-c441f0eef22e" d="M87.52,148.25l29.49-2.81c.67-.06,1-.57.74-1.13l-.12-.25c-.27-.56-1.03-.96-1.71-.9l-29.54,2.78c-.7.07-1.03.58-.76,1.14l.13.26c.28.57,1.07.97,1.76.91Z" fill="#3e4352"/><path id="uuid-2824fc36-52f6-4fd6-8207-5eb4a13e5f0c" d="M94.97,153.39l24.79-2.44c.62-.06.92-.53.68-1.04l-.2-.41c-.25-.51-.95-.88-1.57-.82l-24.83,2.41c-.64.06-.95.53-.69,1.05l.2.41c.25.52.98.89,1.61.83Z" fill="#3e4352"/><path id="uuid-fa64d7f5-f96b-4ae7-858e-1703d2fe9d41" d="M81.9,136.81l29.7-2.65c.68-.06,1.01-.57.74-1.13l-.12-.25c-.27-.56-1.04-.97-1.72-.91l-29.74,2.62c-.7.06-1.04.58-.76,1.15l.13.26c.28.57,1.08.98,1.78.92Z" fill="#3e4352"/><path id="uuid-f3ab7403-62b0-4603-b640-fc9938ea42a9" d="M93.54,141.63l20.91-1.93c.57-.05.85-.48.63-.96l-.27-.56c-.23-.48-.88-.82-1.45-.77l-20.94,1.91c-.59.05-.87.49-.64.97l.28.57c.23.48.9.83,1.49.77Z" fill="#3e4352"/><path id="uuid-588d8e37-e4fa-4ca9-af38-17a253e49506" d="M85.15,124.45l21.13-1.76c.58-.05.86-.48.63-.96l-.27-.57c-.23-.48-.89-.83-1.47-.79l-21.16,1.74c-.59.05-.88.48-.64.97l.28.57c.24.49.91.84,1.5.79Z" fill="#3e4352"/><path id="uuid-d4d93691-c5db-4965-8625-1b9be53da55b" d="M83.32,130.51l25.56-2.2c.63-.05.94-.52.69-1.05l-.19-.4c-.25-.53-.97-.91-1.6-.85l-25.59,2.18c-.65.06-.97.53-.71,1.06l.2.4c.26.53,1,.92,1.65.86Z" fill="#3e4352"/><path id="uuid-5c65ed02-30f7-4984-b671-7242cc4c9a3c" d="M76.58,113.85l24.47-1.9c.62-.05.93-.51.68-1.03l-.22-.45c-.25-.52-.96-.9-1.58-.85l-24.51,1.87c-.64.05-.95.51-.69,1.04l.22.46c.26.52.98.91,1.62.86Z" fill="#3e4352"/><path id="uuid-882597b4-a732-4962-bd72-07a60466e0ed" d="M76.61,119.8l27.1-2.18c.65-.05.97-.53.71-1.08l-.17-.35c-.26-.54-1-.94-1.66-.89l-27.13,2.15c-.67.05-1,.54-.73,1.09l.18.36c.27.55,1.03.95,1.71.9Z" fill="#3e4352"/><path id="uuid-df949008-d895-46df-b60e-0e4fd033a44f" d="M65.08,102.58l30.3-2.17c.69-.05,1.03-.56.75-1.13l-.13-.26c-.28-.58-1.06-1-1.76-.96l-30.35,2.14c-.72.05-1.06.57-.77,1.15l.13.27c.29.58,1.1,1.02,1.81.97Z" fill="#3e4352"/><path id="uuid-c46238ba-17f4-4e52-9d58-01c38a124e2c" d="M70.1,108.2l28.07-2.09c.67-.05.99-.54.73-1.09l-.16-.33c-.27-.55-1.02-.96-1.69-.92l-28.11,2.06c-.69.05-1.02.55-.74,1.11l.16.34c.28.56,1.06.98,1.74.92Z" fill="#3e4352"/><path id="uuid-3184af4f-0a7f-49f6-8d13-24b91fc68934" d="M62.56,91.13l27.56-1.82c.66-.04.99-.53.72-1.08l-.17-.36c-.27-.55-1.02-.97-1.69-.92l-27.6,1.78c-.68.04-1.02.54-.74,1.1l.18.37c.28.56,1.05.98,1.74.93Z" fill="#3e4352"/><path id="uuid-9ac8c21c-d33b-42b1-8e44-4840201776fd" d="M68.22,96.75l24.72-1.7c.63-.04.94-.5.69-1.03l-.22-.46c-.25-.52-.97-.92-1.6-.87l-24.76,1.67c-.65.04-.96.51-.7,1.04l.23.46c.26.53.99.93,1.64.88Z" fill="#3e4352"/><path id="uuid-bd655b05-8841-48e9-affd-5859ae8f9628" d="M62.87,78.78l21.71-1.3c.6-.04.89-.47.65-.96l-.28-.59c-.24-.5-.92-.87-1.51-.84l-21.74,1.27c-.61.04-.91.47-.66.98l.29.59c.25.5.94.88,1.55.84Z" fill="#3e4352"/><path id="uuid-30beba66-da9e-40e0-963a-2f3776c2d0f6" d="M56.55,85.21l30.62-1.92c.7-.04,1.04-.55.76-1.13l-.13-.26c-.28-.58-1.07-1.02-1.77-.98l-30.66,1.89c-.72.04-1.07.56-.78,1.15l.13.27c.29.59,1.11,1.04,1.83.99Z" fill="#3e4352"/><path id="uuid-b39c94a0-8e62-4fc3-a90d-232a371435ae" d="M51.19,67.91l27.94-1.51c.67-.04,1-.52.73-1.08l-.18-.37c-.27-.56-1.03-.99-1.71-.95l-27.98,1.48c-.69.04-1.03.53-.75,1.1l.18.37c.28.57,1.07,1,1.76.96Z" fill="#3e4352"/><path id="uuid-844bc778-c64c-4c09-951b-cf5cf4a23fdb" d="M51.05,74l30.82-1.76c.7-.04,1.05-.55.76-1.14l-.13-.27c-.28-.59-1.08-1.03-1.79-.99l-30.86,1.72c-.73.04-1.08.56-.79,1.15l.13.27c.29.6,1.12,1.05,1.85,1.01Z" fill="#3e4352"/><path id="uuid-30395737-9615-453e-97ee-9224726bc989" d="M44.09,55.88l29.28-1.4c.69-.03,1.03-.53.75-1.11l-.16-.33c-.28-.58-1.06-1.02-1.75-.99l-29.33,1.37c-.71.03-1.06.54-.77,1.12l.17.34c.29.59,1.1,1.03,1.81,1Z" fill="#3e4352"/><path id="uuid-0c55ab46-cd23-4eb7-91f9-5c964573ace9" d="M50.32,61.68l25.95-1.32c.65-.03.97-.5.71-1.05l-.21-.44c-.26-.54-1-.96-1.65-.93l-25.99,1.29c-.67.03-.99.51-.72,1.06l.22.45c.27.55,1.03.97,1.7.94Z" fill="#3e4352"/><path id="uuid-f2f6ba7b-17a8-462a-b10c-8826a3398e1b" d="M36.19,43.76l31.36-1.31c.72-.03,1.06-.54.78-1.14l-.13-.27c-.29-.6-1.1-1.06-1.82-1.03l-31.41,1.28c-.74.03-1.1.55-.8,1.16l.14.28c.3.61,1.14,1.08,1.88,1.05Z" fill="#3e4352"/><path id="uuid-d88d4171-d002-4c4e-bbf7-caee39423e18" d="M42.99,49.61l27.49-1.23c.67-.03,1-.51.73-1.07l-.19-.4c-.27-.56-1.03-.99-1.71-.97l-27.53,1.2c-.69.03-1.03.52-.75,1.09l.2.4c.28.57,1.07,1.01,1.76.98Z" fill="#3e4352"/></g></g><path id="uuid-18d993fe-b463-46ce-9a3c-39a289e37ac6" d="M9.3,29.77l254.81-9.16-6.96-12.62C254.65,3.47,249.18-.11,244.9,0L8.04,6.03c-5.35.14-7.78,4.38-5.4,9.49l6.65,14.25Z" fill="url(#uuid-4aabccf5-3e3d-4d2c-9dbc-588e9ef0d1c5)"/><g id="uuid-4588f76d-09d9-4458-a56b-a56a1ff3d49e"><path id="uuid-2e894f44-923d-4f13-85b7-429270d978d2" d="M22.38,16.72c-1.28-2.34-4.15-4.19-6.4-4.11-2.25.07-3.02,2.03-1.74,4.36,1.28,2.33,4.14,4.17,6.39,4.1,2.25-.07,3.04-2.01,1.76-4.35Z" fill="#e0685f"/><path id="uuid-63bd9a4a-1b3f-4639-9291-ec48164e6664" d="M47.13,15.96c-1.28-2.37-4.18-4.23-6.48-4.15s-3.11,2.05-1.83,4.41,4.17,4.21,6.46,4.14c2.29-.07,3.12-2.03,1.84-4.4Z" fill="#6ab355"/><path id="uuid-bab34ede-a6fd-4ec4-9ca5-ab43b17d7a39" d="M34.69,16.34c-1.28-2.35-4.17-4.21-6.44-4.13-2.27.07-3.06,2.04-1.78,4.38,1.28,2.34,4.15,4.19,6.42,4.12,2.27-.07,3.08-2.02,1.8-4.38Z" fill="#f3bc54"/><path id="uuid-8c321dde-9311-478a-b009-a8b428e6b793" d="M19.44,16.81c-.36-.65-1.16-1.17-1.78-1.15s-.85.56-.49,1.22,1.16,1.16,1.78,1.15.85-.56.49-1.22Z" fill="#681d17"/></g></g></g></svg>