<svg id="uuid-f55afbd8-5756-42e0-bee7-1ca02151813a" xmlns="http://www.w3.org/2000/svg" width="129.24mm" height="83.34mm" xmlns:xlink="http://www.w3.org/1999/xlink" viewBox="0 0 366.36 236.25"><defs><linearGradient id="uuid-c6526cd5-9f11-4823-9893-a25eaf740ccf" x1="3.89" y1="167.02" x2="356.27" y2="72.6" gradientUnits="userSpaceOnUse"><stop offset="0" stop-color="#242932"/><stop offset=".27" stop-color="#2d323d"/><stop offset=".6" stop-color="#3d4351"/><stop offset=".61" stop-color="#3a404d"/><stop offset=".72" stop-color="#2d333e"/><stop offset=".83" stop-color="#262b34"/><stop offset="1" stop-color="#242932"/></linearGradient><linearGradient id="uuid-5079fd66-03af-40e1-a614-653ed29bac80" x1="106.32" y1="35.19" x2="366.36" y2="35.19" gradientUnits="userSpaceOnUse"><stop offset="0" stop-color="#242932"/><stop offset=".18" stop-color="#292e39"/><stop offset=".44" stop-color="#393f4c"/><stop offset=".49" stop-color="#3d4351"/><stop offset=".65" stop-color="#343945"/><stop offset="1" stop-color="#242932"/></linearGradient></defs><g id="uuid-11595fcc-7ab2-41a4-ace3-7d724d4fab9c"><g id="uuid-5759570c-58fa-4a78-bfff-9fbe810190e3"><path d="M366.36,52.86h-.01c0,1.45-.52,3.05-1.64,4.65l-9.03,12.88v10l9.03-12.88c1.3-1.85,1.8-3.7,1.61-5.32l.05-.09v-9.25Z" fill="#323945"/><path d="M234.9,225.81L3.49,156.37c-2.31-.69-3.48-2.42-3.48-4.57H0v9.93h0c-.02,2.19,1.15,3.94,3.48,4.64l231.42,69.45c5.38,1.62,12.79-1.38,16.51-6.69l104.26-148.74v-10l-104.26,148.74c-3.72,5.3-11.12,8.3-16.51,6.69Z" fill="#1d212a"/><path id="uuid-6c50396d-bf44-4000-a462-430541f22ca4" d="M234.9,225.81L3.49,156.37c-4.24-1.27-4.67-6.01-.99-10.57L106.32,17.12l249.35,53.27-104.26,148.74c-3.72,5.3-11.12,8.3-16.51,6.69Z" fill="url(#uuid-c6526cd5-9f11-4823-9893-a25eaf740ccf)"/><g id="uuid-8bb340d0-b532-43bc-865a-9b187a0db072"><g id="uuid-5c87ad22-0c0e-4a0b-ba78-b7ad7c27840a"><path id="uuid-390c5487-ef59-4b39-95f1-31fd617620b3" d="M152.89,59.57l-15.49-3.56c-.62-.14-.74-.74-.26-1.35l.95-1.22c.47-.6,1.35-.97,1.97-.83l15.49,3.53c.63.14.75.75.28,1.36l-.96,1.23c-.47.61-1.36.98-1.99.84Z" fill="#8c762a"/><path id="uuid-c282b933-1fc2-44b2-acdb-8f3ae1913d0f" d="M155,90.07l-36.62-8.96c-.92-.23-1.09-1.15-.37-2.07l.11-.14c.72-.91,2.05-1.47,2.97-1.25l36.62,8.88c.96.23,1.15,1.18.44,2.12l-.11.15c-.72.94-2.08,1.51-3.04,1.27Z" fill="#8c762a"/><path id="uuid-4df5b24d-6f81-4713-a35c-f6a38c117686" d="M209.61,72.6l-48.54-11.15c-.98-.22-1.18-1.17-.45-2.11l.02-.03c.73-.94,2.11-1.52,3.09-1.3l48.54,11.06c1.03.23,1.27,1.21.54,2.18l-.02.03c-.73.97-2.16,1.57-3.18,1.33Z" fill="#439b8e"/><path id="uuid-03560605-67e6-43e8-9712-34eb703028a9" d="M245,80.74l-27.72-6.37c-.77-.18-.96-.91-.41-1.64l.69-.92c.55-.73,1.61-1.17,2.39-1l27.72,6.31c.79.18,1,.93.45,1.67l-.69.93c-.55.74-1.63,1.19-2.43,1.01Z" fill="#439b8e"/><path id="uuid-eb54048e-8442-4612-a5f4-b61f0d3a33b4" d="M188.89,57.93l-44.81-10.08c-.96-.21-1.14-1.14-.42-2.06l.02-.03c.72-.92,2.08-1.5,3.04-1.29l44.81,9.99c1,.22,1.22,1.17.5,2.12l-.02.03c-.73.95-2.13,1.54-3.12,1.31Z" fill="#4e54a0"/><path id="uuid-d0c17c30-c01d-4892-9843-b58e0b619968" d="M179.04,75.58l-47.42-11.13c-.96-.22-1.13-1.16-.4-2.1l.02-.03c.73-.93,2.1-1.51,3.06-1.29l47.43,11.03c1,.23,1.22,1.2.49,2.16l-.02.03c-.73.96-2.14,1.55-3.15,1.32Z" fill="#439b8e"/><path id="uuid-008fd500-9caf-467f-84bd-d70bcf2ef489" d="M224.71,86.29l-37.1-8.71c-.88-.21-1.07-1.05-.43-1.89l.37-.49c.64-.84,1.86-1.35,2.74-1.15l37.1,8.63c.91.21,1.13,1.08.49,1.93l-.37.5c-.64.86-1.89,1.38-2.8,1.17Z" fill="#439b8e"/><path id="uuid-29a801a8-39f8-4f1b-91a0-cf29e861aa1a" d="M193.61,89.19l-48.39-11.6c-.97-.23-1.16-1.19-.43-2.15l.02-.03c.74-.95,2.13-1.53,3.1-1.3l48.39,11.5c1.02.24,1.25,1.23.52,2.21l-.02.03c-.74.98-2.17,1.58-3.19,1.33Z" fill="#439b8e"/><path id="uuid-e76a7ac4-07c3-4065-92ba-54be970fc7b8" d="M225.25,96.77l-23.22-5.56c-.71-.17-.87-.86-.36-1.54l.85-1.14c.51-.68,1.5-1.09,2.21-.92l23.22,5.52c.73.17.9.87.39,1.56l-.85,1.15c-.51.69-1.51,1.11-2.24.93Z" fill="#439b8e"/><path id="uuid-c771c4ef-a036-4976-8550-27acd30f29cc" d="M122.89,104.14l-19.25-4.92c-.88-.23-1.03-1.13-.34-2.01l.23-.29c.69-.89,1.97-1.42,2.85-1.2l19.25,4.88c.9.23,1.07,1.14.37,2.04l-.23.3c-.7.9-1.99,1.44-2.89,1.21Z" fill="#3b7580"/><path id="uuid-b6d77ae9-bd10-4a34-90ee-919bd47d35af" d="M168.51,106.62l-41.67-10.47c-.66-.17-.78-.83-.27-1.49l.89-1.14c.51-.66,1.46-1.05,2.12-.89l41.68,10.38c.69.17.84.86.33,1.53l-.89,1.17c-.51.67-1.49,1.08-2.18.91Z" fill="#376588"/><path id="uuid-a79d6121-84d1-4bdf-998b-ed65af8db8b0" d="M128.81,105.85h-.02c-.96-.25-1.14-1.23-.4-2.19l.06-.08c.74-.96,2.12-1.54,3.09-1.29h.02c.96.25,1.15,1.23.4,2.19l-.06.08c-.74.96-2.13,1.54-3.09,1.29Z" fill="#3b7580"/><path id="uuid-2058c1d5-840a-4018-9010-c2a6778c6c42" d="M192.24,131.67l-49.57-12.91c-1-.26-1.19-1.27-.43-2.26l.02-.03c.76-.99,2.18-1.58,3.18-1.32l49.57,12.81c1.05.27,1.28,1.32.53,2.34l-.02.03c-.76,1.02-2.23,1.63-3.27,1.36Z" fill="#3e4352"/><path id="uuid-e3c809e1-e9c4-421c-8b67-e369babf01a4" d="M157.65,122.66l-47.93-12.49c-.96-.25-1.13-1.24-.38-2.21l.02-.03c.76-.97,2.15-1.55,3.12-1.31l47.94,12.38c1.01.26,1.22,1.28.46,2.29l-.02.03c-.76,1-2.2,1.6-3.21,1.34Z" fill="#4e54a0"/><path id="uuid-65c6a577-75c9-4a8c-af08-a9546154e5d8" d="M114.81,124.92l-19.37-5.18c-.89-.24-1.03-1.16-.33-2.06l.23-.3c.7-.9,1.99-1.44,2.88-1.21l19.37,5.13c.9.24,1.07,1.17.36,2.09l-.23.3c-.71.91-2.01,1.46-2.92,1.22Z" fill="#3b7580"/><path id="uuid-77a8e3f4-db68-4f1f-b051-60e8c863a320" d="M174.73,141.04l-51.09-13.66c-.99-.26-1.17-1.28-.4-2.27l.02-.03c.76-.99,2.18-1.58,3.17-1.32l51.09,13.55c1.04.28,1.26,1.33.5,2.35l-.02.03c-.77,1.02-2.23,1.63-3.27,1.35Z" fill="#5f6472"/><path id="uuid-ba3dd559-4a3d-4bd6-8363-49f2edc47f49" d="M150.85,148.66l-69.2-18.98c-.8-.22-.92-1.06-.28-1.88l.48-.61c.64-.82,1.81-1.31,2.61-1.09l69.2,18.83c.86.23,1.03,1.12.38,1.97l-.48.64c-.65.86-1.86,1.36-2.72,1.13Z" fill="#3b7580"/><path id="uuid-ad19a126-ae31-4649-b5b5-199fbe9a312c" d="M144.33,146.87l-51.91-14.24c-.78-.21-.91-1.03-.28-1.83l.56-.72c.62-.8,1.76-1.27,2.54-1.06l51.91,14.12c.82.22.98,1.07.36,1.9l-.56.74c-.62.82-1.8,1.31-2.62,1.09Z" fill="#439b8e"/><path id="uuid-20a62893-f83c-458e-91f2-b4b978995f2c" d="M175.15,155.32l-18.83-5.17c-.5-.14-.6-.65-.23-1.15l1.46-1.95c.37-.5,1.08-.79,1.58-.65l18.83,5.12c.51.14.62.66.24,1.16l-1.46,1.97c-.37.5-1.09.8-1.6.66Z" fill="#3b7580"/><path id="uuid-8756e6af-c662-495b-aaaa-b575c2222185" d="M165.94,152.8l-2.1-.58c-1.04-.28-1.25-1.35-.48-2.38l.02-.03c.77-1.03,2.23-1.63,3.27-1.35l2.1.57c1.04.28,1.26,1.35.49,2.38l-.02.03c-.77,1.03-2.24,1.64-3.28,1.36Z" fill="#376588"/><path id="uuid-ac136bec-7de7-483e-8a8a-cdd7d778c036" d="M127.6,170.86l11.8,3.41c.57.16.68.77.25,1.35l-1.29,1.72c-.44.58-1.25.92-1.82.75l-11.8-3.43c-.56-.16-.67-.76-.23-1.34l1.29-1.71c.44-.58,1.25-.91,1.81-.75Z" fill="#8c762a"/><path id="uuid-a011bbbc-1b0c-40bb-84ff-da76a2da31be" d="M86.08,158.87l34.9,10.07c.87.25,1.02,1.17.35,2.06l-.43.57c-.67.89-1.92,1.4-2.79,1.15l-34.9-10.15c-.84-.24-.97-1.14-.29-2.01l.43-.56c.67-.87,1.89-1.37,2.73-1.13Z" fill="#439b8e"/><path id="uuid-8aa29a4c-10bc-4d96-a62f-791f29337e18" d="M62.02,151.93l18.36,5.3c.62.18.72.85.22,1.5l-1.04,1.34c-.5.65-1.42,1.03-2.04.85l-18.36-5.34c-.61-.18-.7-.84-.19-1.48l1.04-1.33c.5-.64,1.4-1.02,2.01-.84Z" fill="#439b8e"/><path id="uuid-0bd67f69-6c53-46bb-86de-1ccbf93bc775" d="M110.17,154.8l35.54,10.06c.88.25,1.06,1.17.39,2.07l-.43.57c-.67.89-1.93,1.41-2.81,1.16l-35.53-10.14c-.85-.24-1-1.15-.33-2.02l.43-.56c.67-.87,1.9-1.38,2.75-1.14Z" fill="#439b8e"/><path id="uuid-bdc1a99f-b877-40eb-8b77-114fd1c1f57d" d="M78.14,145.73l25.42,7.2c.73.21.86.99.28,1.74l-.75.97c-.58.75-1.65,1.2-2.38.99l-25.41-7.25c-.71-.2-.82-.97-.24-1.71l.75-.96c.58-.74,1.63-1.18,2.34-.98Z" fill="#439b8e"/><path id="uuid-e08091df-de05-4def-a8fb-175b11ec68da" d="M101.94,141.64l35,9.71c.87.24,1.03,1.15.37,2.02l-.43.56c-.67.88-1.91,1.39-2.78,1.15l-35-9.79c-.84-.23-.98-1.12-.31-1.98l.42-.55c.66-.86,1.88-1.36,2.72-1.13Z" fill="#439b8e"/><path id="uuid-7074c544-5bd7-44ee-b849-5e41ac502c38" d="M80.22,135.61l15.48,4.3c.57.16.67.77.21,1.36l-1.17,1.51c-.46.59-1.3.94-1.87.78l-15.48-4.33c-.56-.16-.65-.76-.19-1.34l1.17-1.49c.46-.58,1.28-.93,1.85-.77Z" fill="#439b8e"/><path id="uuid-e4bb718b-9740-42bc-b160-9c5e735225c5" d="M144.64,153.41l19.77,5.49c.67.19.81.88.31,1.55l-1.03,1.38c-.5.67-1.45,1.06-2.12.87l-19.77-5.53c-.66-.18-.78-.87-.28-1.53l1.03-1.36c.5-.66,1.43-1.05,2.09-.86Z" fill="#3e4352"/><path id="uuid-51e315f4-e23c-4a80-a299-3d9320da75a8" d="M158.88,157.37l20.06,5.57c.68.19.83.89.33,1.56l-1.03,1.39c-.5.67-1.45,1.07-2.13.88l-20.06-5.61c-.66-.19-.8-.88-.3-1.54l1.03-1.37c.5-.67,1.44-1.05,2.11-.87Z" fill="#4e54a0"/></g><path id="uuid-5c2763cf-9f85-4e26-abdc-659c8211c0ae" d="M52.64,153.68l-1.05-.3c-.17-.05-.19-.23-.05-.41l86.67-110.05c.13-.16.37-.26.54-.23l1.05.23c.17.04.2.2.07.36l-86.68,110.16c-.14.18-.39.28-.55.23Z" fill="#3e4352"/><g id="uuid-787613e6-0eed-441a-ad9f-c7cdc40bfac9"><path id="uuid-eab80eae-d61d-4cc6-9bca-d767707bb4ed" d="M111.35,41.47l18.53,4.18c.43.1.52.52.18.94l-.15.19c-.33.42-.96.69-1.39.59l-18.53-4.2c-.43-.1-.5-.51-.17-.93l.15-.19c.33-.42.95-.68,1.38-.58Z" fill="#3e4352"/><path id="uuid-32db3da3-d75c-477c-a826-00f67bea1a66" d="M116.9,37.82l16.33,3.64c.41.09.49.49.17.88l-.22.28c-.31.4-.9.65-1.31.55l-16.33-3.66c-.4-.09-.47-.48-.16-.87l.22-.28c.31-.39.89-.64,1.29-.55Z" fill="#3e4352"/><path id="uuid-417a4bbb-9473-49c8-aaf8-94b786c7e17f" d="M104.56,49.98l18.52,4.27c.43.1.51.53.18.95l-.15.19c-.34.43-.96.69-1.4.59l-18.52-4.29c-.43-.1-.5-.52-.16-.94l.15-.19c.34-.42.95-.68,1.38-.58Z" fill="#3e4352"/><path id="uuid-2b18802d-edfd-4d71-9653-82ae00a7bb33" d="M111.06,46.53l15.41,3.51c.4.09.47.48.16.87l-.26.32c-.31.39-.88.63-1.28.54l-15.41-3.53c-.39-.09-.46-.47-.15-.86l.25-.32c.31-.38.87-.62,1.26-.54Z" fill="#3e4352"/><path id="uuid-27bdddac-3468-4915-be45-fce5d9d10e18" d="M108.5,60.37l8.46,1.99c.3.07.35.37.12.66l-.54.68c-.23.29-.66.48-.96.41l-8.46-2c-.3-.07-.35-.36-.11-.66l.54-.68c.23-.29.66-.47.96-.4Z" fill="#3e4352"/><path id="uuid-59e28b26-27dd-411a-8b43-fe7d4588f2e1" d="M109.49,55.6l10.76,2.5c.33.08.39.41.13.74l-.43.55c-.26.33-.74.53-1.08.45l-10.75-2.52c-.33-.08-.39-.41-.13-.73l.43-.55c.26-.33.74-.53,1.07-.45Z" fill="#3e4352"/><path id="uuid-318eac89-a0ca-4288-af3b-4da5cb986640" d="M91.37,66.51l18.51,4.45c.43.1.51.54.17.97l-.15.2c-.34.43-.97.7-1.4.59l-18.51-4.47c-.43-.1-.49-.53-.15-.96l.15-.19c.34-.43.96-.69,1.39-.59Z" fill="#3e4352"/><path id="uuid-c7913bb9-e860-4cd8-8c8b-8480747f042e" d="M97.64,62.98l15.68,3.73c.4.1.47.49.16.89l-.25.32c-.31.4-.89.64-1.29.55l-15.67-3.75c-.39-.09-.46-.49-.15-.88l.25-.31c.31-.39.89-.64,1.28-.54Z" fill="#3e4352"/><path id="uuid-4b5415c0-60d2-46e8-9dcb-a2c86fc7f4d5" d="M84.5,75.13l18.5,4.55c.43.11.51.54.16.98l-.16.2c-.34.43-.97.7-1.41.59l-18.5-4.57c-.43-.11-.49-.54-.15-.97l.16-.19c.34-.43.96-.69,1.39-.59Z" fill="#3e4352"/><path id="uuid-36c171b2-61a6-433c-8320-1aec182caf45" d="M93.34,72.2l13.17,3.2c.37.09.43.46.14.83l-.34.43c-.29.37-.82.59-1.19.5l-13.17-3.22c-.36-.09-.42-.46-.13-.82l.34-.43c.29-.36.82-.59,1.18-.5Z" fill="#3e4352"/><path id="uuid-4331b70b-207c-4e38-9f5f-67b8f6b61ada" d="M82.98,85.22l13.17,3.31c.37.09.43.47.14.84l-.35.44c-.29.37-.83.6-1.2.5l-13.16-3.32c-.36-.09-.42-.46-.13-.83l.34-.43c.29-.37.82-.59,1.19-.5Z" fill="#3e4352"/><path id="uuid-32c80535-e2db-407a-bdaa-2e05d15d0695" d="M83.58,80.23l15.92,3.96c.4.1.47.51.15.91l-.24.31c-.32.41-.91.65-1.31.55l-15.92-3.97c-.4-.1-.46-.5-.14-.91l.24-.3c.32-.4.9-.65,1.3-.55Z" fill="#3e4352"/><path id="uuid-821f5943-850d-4980-9ead-4b4ea077ea9c" d="M74.47,92.91l15.1,3.87c.39.1.46.51.14.9l-.27.35c-.31.4-.89.64-1.28.54l-15.1-3.89c-.39-.1-.45-.5-.13-.9l.27-.34c.31-.39.88-.63,1.27-.53Z" fill="#3e4352"/><path id="uuid-c94d26ac-3b70-41d4-abb5-13c8b6140ae7" d="M76.23,88.17l16.75,4.25c.41.1.48.53.15.95l-.22.27c-.33.42-.93.67-1.35.57l-16.74-4.27c-.41-.1-.47-.52-.14-.94l.22-.27c.33-.41.93-.66,1.33-.56Z" fill="#3e4352"/><path id="uuid-2108860c-97d9-45af-8d25-e73039272ff5" d="M64.02,100.79l18.48,4.84c.43.11.5.56.15,1.01l-.16.2c-.35.44-.98.71-1.42.6l-18.48-4.86c-.42-.11-.49-.56-.14-.99l.16-.2c.35-.44.98-.7,1.4-.59Z" fill="#3e4352"/><path id="uuid-c1b9ad3b-67bd-41ae-9faa-a8bf1e39b4c7" d="M68.77,96.8l17.21,4.46c.42.11.49.54.15.97l-.2.25c-.34.43-.95.68-1.37.57l-17.21-4.48c-.41-.11-.47-.54-.14-.96l.2-.25c.34-.42.94-.68,1.35-.57Z" fill="#3e4352"/><path id="uuid-1cca6aff-5096-4b90-a2e6-6f1d6d9644bf" d="M59.09,109.68l16.73,4.47c.41.11.48.54.14.97l-.22.28c-.33.42-.94.68-1.35.57l-16.73-4.49c-.41-.11-.46-.54-.13-.96l.22-.27c.33-.42.93-.67,1.34-.56Z" fill="#3e4352"/><path id="uuid-aa9e9d2f-7069-4091-b8a4-809b72545586" d="M64.24,105.76l15.09,3.99c.39.1.45.51.14.92l-.28.35c-.32.4-.89.64-1.29.54l-15.09-4.01c-.39-.1-.44-.51-.12-.91l.28-.35c.32-.4.89-.64,1.27-.54Z" fill="#3e4352"/><path id="uuid-cec5c23b-2541-4d18-887a-d212d7170bb4" d="M55.61,119.62l13.14,3.58c.37.1.42.49.12.87l-.35.45c-.3.38-.84.61-1.21.51l-13.14-3.6c-.36-.1-.41-.49-.11-.86l.35-.44c.3-.38.84-.6,1.2-.5Z" fill="#3e4352"/><path id="uuid-c9a25d9d-6bd4-4294-807a-91226eb88081" d="M53.67,113.76l18.47,4.99c.43.12.5.57.15,1.02l-.16.2c-.35.45-.99.71-1.42.6l-18.46-5.01c-.42-.12-.48-.57-.13-1.01l.16-.2c.35-.44.98-.71,1.41-.59Z" fill="#3e4352"/><path id="uuid-175b047a-395a-4b1c-94c8-c2cbc5c051a5" d="M45.27,127.01l16.71,4.65c.41.11.47.56.13.99l-.22.28c-.34.43-.95.68-1.36.57l-16.71-4.67c-.4-.11-.46-.55-.12-.97l.22-.28c.34-.42.94-.68,1.35-.56Z" fill="#3e4352"/><path id="uuid-a1e7424d-d6a9-43d7-baa4-f82e807d81ee" d="M47.01,122.11l18.46,5.08c.43.12.5.58.14,1.03l-.16.2c-.35.45-.99.72-1.43.6l-18.46-5.1c-.42-.12-.48-.57-.13-1.02l.16-.2c.35-.44.98-.71,1.41-.59Z" fill="#3e4352"/><path id="uuid-d31478ba-ed6d-469c-bd77-51b31ea52005" d="M37.42,135.82l17.37,4.93c.42.12.48.57.13,1.01l-.2.25c-.35.44-.97.7-1.39.58l-17.37-4.95c-.41-.12-.46-.57-.12-1l.2-.25c.35-.44.96-.69,1.37-.58Z" fill="#3e4352"/><path id="uuid-abc819d2-90e7-4bb3-8f2b-0a759db7448c" d="M42.88,131.92l15.49,4.35c.4.11.45.54.13.95l-.27.34c-.33.42-.92.66-1.31.55l-15.49-4.37c-.39-.11-.44-.53-.11-.94l.27-.33c.33-.41.91-.66,1.3-.55Z" fill="#3e4352"/><path id="uuid-d4186c6b-f40d-4851-b2f3-fd174a989a2e" d="M29.1,144.56l18.43,5.34c.43.13.49.6.13,1.05l-.16.21c-.36.46-1,.72-1.44.6l-18.43-5.36c-.42-.12-.47-.59-.11-1.04l.16-.2c.36-.45.99-.72,1.42-.59Z" fill="#3e4352"/><path id="uuid-87b19ff0-0b3f-4b4e-894f-392936b1e503" d="M34.87,140.73l16.27,4.67c.41.12.46.56.12.99l-.24.3c-.34.43-.94.68-1.35.56l-16.27-4.69c-.4-.12-.45-.55-.11-.98l.24-.3c.34-.42.94-.67,1.33-.56Z" fill="#3e4352"/></g></g><path id="uuid-6d0ecffd-9e5d-4e75-883f-82aaec1f4b1f" d="M355.68,70.39L106.32,17.12l9.05-11.22c3.25-4.02,9.26-6.59,13.45-5.74l232.22,47.07c5.25,1.06,6.9,5.66,3.67,10.28l-9.03,12.88Z" fill="url(#uuid-5079fd66-03af-40e1-a614-653ed29bac80)"/><g id="uuid-ba50c76c-ffd8-427e-89cb-65909dece349"><path id="uuid-25d95352-6460-4c67-b777-2ca2c0628cff" d="M128.65,10.21c-1.67,2.08-4.82,3.4-7.02,2.94-2.2-.46-2.63-2.52-.96-4.6,1.67-2.07,4.8-3.39,7-2.93,2.2.45,2.64,2.51.98,4.59Z" fill="#e0685f"/><path id="uuid-c4bd8df5-05d5-45a0-8a15-fcd06a0bde2e" d="M152.89,15.25c-1.67,2.11-4.85,3.44-7.1,2.96s-2.7-2.56-1.03-4.66c1.67-2.1,4.84-3.42,7.08-2.96,2.25.46,2.72,2.55,1.05,4.65Z" fill="#6ab355"/><path id="uuid-7789d5b3-97a2-4ee6-b247-11d37e8edf0e" d="M140.71,12.72c-1.67,2.1-4.83,3.42-7.06,2.95-2.22-.47-2.66-2.54-.99-4.63,1.67-2.09,4.82-3.4,7.04-2.95s2.68,2.53,1.01,4.62Z" fill="#f3bc54"/><path id="uuid-e2fa5594-bc13-4ce3-941b-227d4230832f" d="M125.76,9.61c-.47.58-1.34.95-1.96.82s-.73-.7-.27-1.28,1.34-.95,1.95-.82.74.7.27,1.28Z" fill="#681d17"/></g></g></g></svg>